HIERARCHY
ROOT Hips
{
 OFFSET 0.000000 0.000000 0.000000
 CHANNELS 6 Xposition Yposition Zposition Yrotation Xrotation Zrotation
 JOINT Chest
 {
  OFFSET 0.000000 10.472350 -0.000389
  CHANNELS 3 Yrotation Xrotation Zrotation
  JOINT Chest2
  {
   OFFSET 0.000000 11.551931 0.000707
   CHANNELS 3 Yrotation Xrotation Zrotation
   JOINT Chest3
   {
    OFFSET 0.000000 10.437915 0.000000
    CHANNELS 3 Yrotation Xrotation Zrotation
    JOINT Chest4
    {
     OFFSET 0.000000 10.437915 0.000000
     CHANNELS 3 Yrotation Xrotation Zrotation
     JOINT Neck
     {
      OFFSET 0.000000 14.676306 0.000000
      CHANNELS 3 Yrotation Xrotation Zrotation
      JOINT Head
      {
       OFFSET 0.000000 9.715761 0.001682
       CHANNELS 3 Yrotation Xrotation Zrotation
       End Site
       {
        OFFSET 0.000000 18.584037 0.000879
       }
      }
     }
     JOINT RightCollar
     {
      OFFSET -3.192169 8.189398 0.000000
      CHANNELS 3 Yrotation Xrotation Zrotation
      JOINT RightShoulder
      {
       OFFSET -14.921841 0.000000 0.000000
       CHANNELS 3 Yrotation Xrotation Zrotation
       JOINT RightElbow
       {
        OFFSET 0.000000 -31.895804 0.000000
        CHANNELS 3 Yrotation Xrotation Zrotation
        JOINT RightWrist
        {
         OFFSET 0.000000 -26.087765 -0.000000
         CHANNELS 3 Yrotation Xrotation Zrotation
         End Site
         {
          OFFSET 0.000000 -19.509425 0.000000
         }
        }
       }
      }
     }
     JOINT LeftCollar
     {
      OFFSET 3.192169 8.189398 0.000000
      CHANNELS 3 Yrotation Xrotation Zrotation
      JOINT LeftShoulder
      {
       OFFSET 14.921841 0.000000 0.000000
       CHANNELS 3 Yrotation Xrotation Zrotation
       JOINT LeftElbow
       {
        OFFSET 0.000000 -31.895804 0.000000
        CHANNELS 3 Yrotation Xrotation Zrotation
        JOINT LeftWrist
        {
         OFFSET 0.000000 -26.087765 -0.000000
         CHANNELS 3 Yrotation Xrotation Zrotation
         End Site
         {
          OFFSET 0.000000 -19.509425 0.000000
         }
        }
       }
      }
     }
    }
   }
  }
 }
 JOINT RightHip
 {
  OFFSET -8.507794 0.001908 0.000195
  CHANNELS 3 Yrotation Xrotation Zrotation
  JOINT RightKnee
  {
   OFFSET 0.000000 -44.002854 -0.000184
   CHANNELS 3 Yrotation Xrotation Zrotation
   JOINT RightAnkle
   {
    OFFSET 0.000000 -43.029750 -0.000312
    CHANNELS 3 Yrotation Xrotation Zrotation
    JOINT RightToe
    {
     OFFSET 0.000000 -7.822577 17.783028
     CHANNELS 3 Yrotation Xrotation Zrotation
     End Site
     {
      OFFSET 0.000000 -1.616737 7.073338
     }
    }
   }
  }
 }
 JOINT LeftHip
 {
  OFFSET 8.507794 0.001908 0.000195
  CHANNELS 3 Yrotation Xrotation Zrotation
  JOINT LeftKnee
  {
   OFFSET 0.000000 -44.002854 -0.000184
   CHANNELS 3 Yrotation Xrotation Zrotation
   JOINT LeftAnkle
   {
    OFFSET 0.000000 -43.029750 -0.000312
    CHANNELS 3 Yrotation Xrotation Zrotation
    JOINT LeftToe
    {
     OFFSET 0.000000 -7.822577 17.783028
     CHANNELS 3 Yrotation Xrotation Zrotation
     End Site
     {
      OFFSET 0.000000 -1.616737 7.073338
     }
    }
   }
  }
 }
}
MOTION
Frames: 9
Frame Time: 0.008333
148.834148 95.546540 -16.323571 160.389317 -17.683763 -3.983636 -1.434918 12.707066 5.668037 -0.831264 5.645401 2.437349 -0.831264 5.645401 2.437349 -0.645534 4.230828 1.834234 -0.408312 26.265884 5.931583 -1.819088 2.898044 6.630118 -6.241277 8.169240 9.398486 -25.229817 -21.533426 -17.905351 66.223775 -80.116068 -49.470071 26.377735 15.457867 -0.946295 1.429177 6.677360 -7.063224 8.323180 -11.357232 14.655957 -5.221426 -14.724728 -14.040369 -15.159094 -5.122524 5.306746 -25.950165 26.409375 -5.225801 12.593843 -1.832226 7.243658 -13.273469 -5.681316 -10.706829 -0.022877 0.296294 -0.007647 45.870198 -3.068943 24.018634 -28.069364 17.284595 -3.360386 9.290345 -6.875482 -4.291921 -0.043142 -0.338186 -0.013881
148.829139 95.547987 -16.325652 160.392754 -17.692713 -3.986274 -1.440882 12.701368 5.678454 -0.834593 5.643107 2.440910 -0.834593 5.643107 2.440910 -0.648053 4.229090 1.836932 -0.404564 26.274742 5.942344 -1.817448 2.909947 6.641518 -6.237849 8.160257 9.377611 -25.337921 -21.923489 -17.892009 73.102464 -80.459267 -56.667282 26.418995 15.483342 -1.227043 1.438166 6.679452 -7.064121 8.315415 -11.362460 14.676603 -5.239500 -14.714249 -14.025942 -15.153295 -5.123690 5.305104 -25.944826 26.415700 -5.228564 12.588058 -1.831017 7.246291 -13.283037 -5.675813 -10.704656 -0.024983 0.292830 -0.007989 45.872279 -3.063238 24.019988 -28.074938 17.289082 -3.356885 9.324172 -6.871198 -4.294669 -0.037893 -0.342020 -0.014282
148.822066 95.549875 -16.327659 160.401657 -17.704630 -3.991786 -1.448624 12.695879 5.685287 -0.836595 5.641776 2.445299 -0.836595 5.641776 2.445299 -0.649589 4.228078 1.840238 -0.404692 26.280796 5.951310 -1.819668 2.918316 6.651766 -6.233809 8.148995 9.358798 -25.432250 -22.340258 -17.896688 80.521789 -80.630538 -64.402491 26.460144 15.463867 -1.586655 1.445677 6.681873 -7.059563 8.300746 -11.367686 14.693132 -5.258160 -14.700083 -14.001974 -15.152817 -5.129065 5.304501 -25.951380 26.425727 -5.233594 12.583056 -1.829831 7.244030 -13.286509 -5.668664 -10.699049 -0.025283 0.289086 -0.008258 45.862955 -3.053878 24.028583 -28.071159 17.289380 -3.359176 9.319743 -6.872844 -4.288497 -0.039601 -0.342265 -0.015107
148.817366 95.551622 -16.329258 160.406533 -17.717917 -3.999745 -1.448772 12.692720 5.696588 -0.837169 5.639727 2.448934 -0.837169 5.639727 2.448934 -0.650045 4.226534 1.842966 -0.404749 26.288472 5.965083 -1.822928 2.929125 6.667440 -6.236334 8.135657 9.335440 -25.551850 -22.784987 -17.895305 88.175740 -80.616459 -72.320404 26.499894 15.423032 -2.125807 1.442939 6.681451 -7.055648 8.299328 -11.372314 14.707687 -5.282985 -14.684320 -13.982695 -15.156944 -5.135816 5.313673 -25.952917 26.438418 -5.232280 12.588140 -1.829141 7.243148 -13.306311 -5.664054 -10.704804 -0.018290 0.286122 -0.002084 45.863553 -3.055066 24.040121 -28.063348 17.301131 -3.361010 9.326987 -6.873275 -4.287023 -0.039068 -0.344903 -0.014630
148.810230 95.552851 -16.330869 160.407209 -17.728277 -4.000724 -1.452426 12.687375 5.701492 -0.838398 5.637270 2.450987 -0.838398 5.637270 2.450987 -0.650976 4.224684 1.844514 -0.406173 26.297028 5.976079 -1.827046 2.940866 6.680343 -6.235814 8.123234 9.309395 -25.678179 -23.267366 -17.907263 95.649438 -80.406350 -80.016702 26.503970 15.286211 -2.832613 1.447941 6.680580 -7.054457 8.291595 -11.373413 14.728548 -5.296869 -14.669485 -13.955767 -15.155625 -5.146051 5.312286 -25.955528 26.443906 -5.240442 12.594513 -1.828430 7.241479 -13.310822 -5.658520 -10.701845 -0.022058 0.286985 -0.001853 45.859743 -3.047567 24.044336 -28.061018 17.307704 -3.360623 9.316291 -6.874964 -4.283432 -0.037640 -0.347517 -0.015339
148.802481 95.554083 -16.332930 160.410611 -17.737187 -4.003436 -1.452010 12.682180 5.709024 -0.839862 5.635373 2.453965 -0.839862 5.635373 2.453965 -0.652093 4.223251 1.846758 -0.407512 26.304378 5.992322 -1.832295 2.951525 6.699099 -6.243755 8.103285 9.283293 -25.814982 -23.771151 -17.932876 102.682033 -80.044246 -87.243400 26.433701 15.069405 -3.770270 1.447094 6.674130 -7.051341 8.286842 -11.372435 14.747607 -5.310717 -14.660575 -13.931175 -15.154913 -5.149518 5.316273 -25.955947 26.449197 -5.246768 12.595749 -1.828598 7.242784 -13.321510 -5.651705 -10.698939 -0.024753 0.285327 -0.002383 45.852502 -3.040454 24.050810 -28.060489 17.311677 -3.363729 9.291906 -6.881101 -4.278340 -0.033409 -0.347364 -0.014299
148.794016 95.555338 -16.335821 160.409834 -17.747287 -4.002873 -1.449235 12.676966 5.709922 -0.838941 5.632777 2.455571 -0.838941 5.632777 2.455571 -0.651407 4.221305 1.847950 -0.410591 26.312358 6.011512 -1.840149 2.963294 6.721604 -6.248521 8.077993 9.251775 -25.985281 -24.281470 -17.955481 109.145054 -79.575106 -93.845526 26.290937 14.729139 -4.940342 1.446392 6.669202 -7.042833 8.281850 -11.369105 14.762914 -5.323432 -14.645866 -13.906334 -15.148819 -5.164704 5.326820 -25.953797 26.454903 -5.256306 12.597887 -1.828877 7.242622 -13.328925 -5.647942 -10.691065 -0.027035 0.286700 -0.005771 45.850685 -3.025717 24.052706 -28.055621 17.312023 -3.362588 9.300904 -6.884348 -4.272887 -0.035644 -0.346047 -0.015640
148.784740 95.556080 -16.339652 160.414217 -17.754704 -4.001278 -1.454702 12.673836 5.709797 -0.838870 5.629504 2.456525 -0.838870 5.629504 2.456525 -0.651351 4.218850 1.848661 -0.411813 26.319096 6.030354 -1.845875 2.973406 6.743249 -6.246147 8.047041 9.219276 -26.147826 -24.802575 -17.989980 114.898534 -79.028713 -99.727110 26.043348 14.307157 -6.351907 1.443536 6.666187 -7.032605 8.293330 -11.372503 14.772867 -5.327984 -14.632386 -13.889870 -15.142599 -5.182148 5.343372 -25.956666 26.460608 -5.267932 12.592211 -1.831131 7.241585 -13.324892 -5.647031 -10.684575 -0.029193 0.290616 -0.006901 45.847929 -3.018017 24.053150 -28.050893 17.319305 -3.365359 9.285494 -6.892168 -4.266784 -0.036299 -0.346080 -0.014589
148.778621 95.556801 -16.341057 160.400674 -17.756030 -4.006844 -1.446561 12.664789 5.713224 -0.838282 5.627397 2.456870 -0.838282 5.627397 2.456870 -0.650905 4.217272 1.848913 -0.409116 26.323971 6.049684 -1.847392 2.981070 6.764461 -6.234778 8.021548 9.182555 -26.319823 -25.340408 -18.025170 120.077697 -78.420474 -104.978998 25.701458 13.786278 -7.991557 1.456996 6.659605 -7.025384 8.287284 -11.369066 14.793398 -5.335989 -14.623485 -13.866427 -15.134063 -5.202761 5.365676 -25.937625 26.458943 -5.260138 12.590093 -1.827558 7.241404 -13.328381 -5.642778 -10.680312 -0.030775 0.289605 -0.008453 45.863093 -3.025697 24.055775 -28.053838 17.329585 -3.362297 9.298019 -6.897646 -4.272776 -0.030045 -0.345925 -0.011530
